{
  "accessors": [
    {
      "bufferView": 2,
      "componentType": 5126,
      "count": 5802,
      "max": [
        3.079598903656006,
        11.004829406738281,
        2.9504432678222656
      ],
      "min": [
        -3.1700894832611084,
        0.0971975326538086,
        -3.2145042419433594
      ],
      "type": "VEC3"
    },
    {
      "bufferView": 2,
      "byteOffset": 69624,
      "componentType": 5126,
      "count": 5802,
      "max": [
        0.9999931454658508,
        0.9997084140777588,
        0.9999667406082153
      ],
      "min": [
        -0.999990701675415,
        -1.0,
        -0.9998765587806702
      ],
      "type": "VEC3"
    },
    {
      "bufferView": 3,
      "componentType": 5126,
      "count": 5802,
      "max": [
        0.9997925162315369,
        0.9961979985237122,
        0.8959373235702515,
        1.0
      ],
      "min": [
        -0.9999988079071045,
        -0.9954941868782043,
        -0.99997478723526,
        1.0
      ],
      "type": "VEC4"
    },
    {
      "bufferView": 1,
      "componentType": 5126,
      "count": 5802,
      "max": [
        1.0,
        0.6535607576370239
      ],
      "min": [
        0.0,
        0.0
      ],
      "type": "VEC2"
    },
    {
      "bufferView": 0,
      "componentType": 5125,
      "count": 33312,
      "type": "SCALAR"
    }
  ],
  "asset": {
    "extras": {
      "author": "Tenebrius (https://sketchfab.com/Tenebrius)",
      "license": "CC-BY-4.0 (http://creativecommons.org/licenses/by/4.0/)",
      "source": "https://sketchfab.com/3d-models/chess-piece-knight-horse-dd5c780cce3d46e4b34606e659f437e0",
      "title": "Chess Piece: Knight (Horse)"
    },
    "generator": "Sketchfab-12.65.0",
    "version": "2.0"
  },
  "bufferViews": [
    {
      "buffer": 0,
      "byteLength": 133248,
      "name": "floatBufferViews",
      "target": 34963
    },
    {
      "buffer": 0,
      "byteLength": 46416,
      "byteOffset": 133248,
      "byteStride": 8,
      "name": "floatBufferViews",
      "target": 34962
    },
    {
      "buffer": 0,
      "byteLength": 139248,
      "byteOffset": 179664,
      "byteStride": 12,
      "name": "floatBufferViews",
      "target": 34962
    },
    {
      "buffer": 0,
      "byteLength": 92832,
      "byteOffset": 318912,
      "byteStride": 16,
      "name": "floatBufferViews",
      "target": 34962
    }
  ],
  "buffers": [
    {
      "byteLength": 411744,
      "uri": "scene.bin"
    }
  ],
  "images": [
    {
      "uri": "textures/HorseTex_baseColor.png"
    },
    {
      "uri": "textures/HorseTex_metallicRoughness.png"
    },
    {
      "uri": "textures/HorseTex_normal.png"
    }
  ],
  "materials": [
    {
      "doubleSided": true,
      "name": "HorseTex",
      "normalTexture": {
        "index": 2
      },
      "pbrMetallicRoughness": {
        "baseColorTexture": {
          "index": 0
        },
        "metallicRoughnessTexture": {
          "index": 1
        }
      }
    }
  ],
  "meshes": [
    {
      "name": "Horse_HorseTex_0",
      "primitives": [
        {
          "attributes": {
            "NORMAL": 1,
            "POSITION": 0,
            "TANGENT": 2,
            "TEXCOORD_0": 3
          },
          "indices": 4,
          "material": 0,
          "mode": 4
        }
      ]
    }
  ],
  "nodes": [
    {
      "children": [
        1
      ],
      "matrix": [
        1.0,
        0.0,
        0.0,
        0.0,
        0.0,
        2.220446049250313e-16,
        -1.0,
        0.0,
        0.0,
        1.0,
        2.220446049250313e-16,
        0.0,
        0.0,
        0.0,
        0.0,
        1.0
      ],
      "name": "Sketchfab_model"
    },
    {
      "children": [
        2
      ],
      "matrix": [
        1.0,
        0.0,
        0.0,
        0.0,
        0.0,
        0.0,
        1.0,
        0.0,
        0.0,
        -1.0,
        0.0,
        0.0,
        0.0,
        0.0,
        0.0,
        1.0
      ],
      "name": "954afc5081af4e60bf6911032683f0f0.fbx"
    },
    {
      "children": [
        3
      ],
      "name": "RootNode"
    },
    {
      "children": [
        4
      ],
      "name": "Horse"
    },
    {
      "mesh": 0,
      "name": "Horse_HorseTex_0"
    }
  ],
  "samplers": [
    {
      "magFilter": 9729,
      "minFilter": 9987,
      "wrapS": 10497,
      "wrapT": 10497
    }
  ],
  "scene": 0,
  "scenes": [
    {
      "name": "Sketchfab_Scene",
      "nodes": [
        0
      ]
    }
  ],
  "textures": [
    {
      "sampler": 0,
      "source": 0
    },
    {
      "sampler": 0,
      "source": 1
    },
    {
      "sampler": 0,
      "source": 2
    }
  ]
}
